<?xml version="1.0" standalone="no"?>
<!DOCTYPE svg PUBLIC "-//W3C//DTD SVG 20010904//EN"
 "http://www.w3.org/TR/2001/REC-SVG-20010904/DTD/svg10.dtd">
<svg version="1.0" xmlns="http://www.w3.org/2000/svg"
 width="429.000000pt" height="669.000000pt" viewBox="0 0 429.000000 669.000000"
 preserveAspectRatio="xMidYMid meet">
<metadata>
Created by potrace 1.13, written by Peter Selinger 2001-2015
</metadata>
<g transform="translate(0.000000,669.000000) scale(0.100000,-0.100000)"
fill="#000000" stroke="none">
<path d="M3020 6653 c-74 -43 -216 -179 -282 -269 l-44 -61 -28 23 c-40 35
-96 30 -114 -11 -6 -12 -28 -131 -48 -264 -21 -133 -41 -246 -44 -252 -5 -7
-15 -6 -32 2 -20 9 -32 8 -54 -2 -29 -14 -32 -21 -99 -203 l-18 -48 -46 6
c-395 52 -873 27 -1218 -64 -220 -57 -364 -130 -503 -255 -269 -240 -380 -453
-457 -875 -25 -134 -27 -165 -27 -425 0 -365 33 -646 120 -1024 60 -256 188
-674 235 -763 15 -27 60 -47 87 -37 36 14 50 64 66 237 8 90 16 165 18 167 2
2 41 -15 88 -39 47 -23 100 -48 119 -54 26 -9 32 -16 26 -29 -16 -43 -57 -194
-76 -282 -28 -134 -36 -371 -16 -468 33 -154 133 -295 241 -339 45 -19 46 -20
46 -66 0 -38 -13 -74 -71 -190 -80 -163 -82 -178 -21 -241 86 -90 218 -174
355 -228 l71 -27 82 -267 c45 -147 89 -274 98 -284 13 -12 36 -16 106 -16 129
0 123 -10 160 264 26 197 39 268 40 220 0 -8 14 -110 30 -228 35 -264 30 -256
160 -256 68 0 93 4 105 16 8 8 53 136 98 284 48 155 89 271 97 276 8 4 54 26
102 48 110 50 208 115 275 183 76 77 76 88 1 243 -60 123 -63 133 -60 190 l4
60 49 23 c112 54 201 183 235 342 32 151 4 426 -67 654 -17 55 -27 102 -22
103 4 2 53 23 107 48 55 25 101 44 102 42 1 -1 7 -60 13 -132 17 -188 21 -211
42 -234 26 -28 70 -27 96 1 48 54 203 549 268 860 11 51 29 94 62 147 l46 74
22 -74 c43 -145 126 -317 222 -461 130 -195 151 -205 240 -113 97 100 179 248
230 412 26 86 27 94 27 353 1 294 -6 352 -85 718 -104 485 -149 904 -149 1404
0 237 -14 381 -49 521 -62 240 -179 420 -321 492 -109 55 -265 71 -395 40 -33
-7 -63 -11 -66 -7 -3 4 -11 34 -18 67 -11 62 -44 105 -79 105 -10 0 -47 -17
-82 -37z m44 -193 c16 -103 50 -122 157 -88 59 18 97 23 189 23 102 0 121 -3
165 -25 63 -31 141 -108 183 -181 38 -67 87 -214 108 -323 10 -56 18 -196 24
-456 14 -599 47 -879 168 -1455 59 -279 75 -428 69 -650 -3 -140 -10 -218 -21
-260 -20 -75 -92 -224 -139 -289 l-36 -49 -54 84 c-113 174 -218 428 -233 564
-9 81 -27 123 -59 135 -28 11 -50 3 -80 -26 -16 -16 -16 -14 -11 27 29 213 35
618 11 786 -33 235 -87 433 -159 588 l-32 70 27 65 c82 195 107 378 61 451
-40 65 -119 79 -221 39 l-54 -21 -34 33 c-19 18 -48 58 -63 89 -41 80 -73 114
-138 146 -54 26 -64 28 -174 26 -68 -1 -118 2 -118 7 0 13 49 320 55 348 4 17
10 22 24 17 44 -13 67 5 131 103 57 87 216 262 239 262 5 0 11 -18 15 -40z
m-594 -825 c10 -12 41 -14 179 -12 158 2 168 1 197 -20 18 -13 43 -48 58 -80
19 -38 57 -87 120 -150 l93 -94 -29 -20 -29 -21 -57 47 c-120 99 -287 177
-495 230 -118 31 -113 24 -81 103 14 35 25 40 44 17z m-280 -200 c312 -43 560
-129 705 -245 86 -68 213 -205 268 -287 131 -197 217 -562 217 -924 0 -370
-46 -718 -150 -1129 -53 -208 -87 -318 -93 -300 -3 8 -35 332 -72 720 -36 388
-70 722 -76 743 -13 48 -50 74 -84 59 -13 -6 -30 -21 -38 -34 -11 -18 -77
-398 -77 -442 0 -33 -19 48 -104 444 -53 245 -103 460 -111 477 -24 54 -104
55 -124 1 -4 -13 -14 -142 -21 -288 -6 -146 -13 -266 -14 -267 -1 -1 -48 78
-104 175 l-101 178 19 95 c36 173 22 239 -50 239 -42 0 -70 -31 -70 -77 0
-173 -144 -551 -328 -863 l-50 -84 -6 34 c-3 19 -8 69 -11 110 -16 192 -82
490 -141 637 -66 164 -179 313 -238 313 -37 0 -69 -32 -69 -69 0 -24 10 -43
40 -74 46 -48 83 -100 83 -116 0 -14 -272 -491 -280 -491 -3 0 -12 119 -18
265 -7 146 -18 276 -24 290 -21 47 -88 49 -116 4 -7 -11 -56 -221 -109 -467
-52 -246 -99 -450 -102 -454 -4 -4 -22 87 -40 203 -18 116 -38 220 -44 230
-20 32 -61 43 -90 24 -14 -9 -28 -23 -31 -32 -3 -8 -38 -344 -76 -746 -39
-403 -71 -739 -73 -747 -3 -20 -68 200 -111 380 -180 747 -178 1400 7 1836 58
139 164 276 313 406 183 160 477 253 924 292 106 9 560 -4 670 -19z m-666
-1366 c32 -146 53 -310 66 -524 11 -176 20 -207 59 -220 41 -13 74 21 166 167
88 141 260 468 305 581 13 31 26 57 30 57 6 0 133 -221 128 -224 -2 -2 -24
-10 -50 -20 -68 -25 -129 -84 -169 -163 -33 -66 -34 -71 -34 -188 0 -115 1
-123 32 -186 123 -249 387 -250 510 -1 37 73 38 80 38 181 0 95 -3 112 -27
165 -29 60 -35 118 -20 199 6 32 21 -24 90 -345 74 -345 85 -385 108 -405 28
-26 51 -28 75 -10 28 21 37 49 55 169 9 65 19 117 20 115 2 -2 19 -167 39
-366 34 -346 34 -364 18 -377 -35 -27 -170 -92 -243 -119 -116 -41 -303 -83
-482 -107 -134 -18 -213 -22 -443 -22 -401 -1 -655 32 -930 121 -81 26 -250
107 -294 142 l-25 19 32 343 c18 189 33 351 33 359 1 35 17 -31 29 -120 14
-104 29 -144 61 -161 27 -14 72 4 87 34 6 12 41 162 77 332 37 171 74 342 83
380 l17 70 6 -120 c5 -103 3 -128 -13 -180 -16 -47 -19 -80 -16 -151 3 -78 8
-100 37 -159 62 -126 139 -180 256 -180 117 0 194 54 256 181 33 66 34 73 34
184 0 108 -2 119 -31 180 -17 36 -45 82 -63 102 -37 43 -122 88 -164 88 -24 0
-28 3 -22 18 6 16 83 154 178 317 l41 70 17 -56 c10 -31 29 -108 43 -170z
m-182 -229 c76 -22 115 -108 82 -182 -24 -53 -65 -78 -128 -78 -43 0 -53 4
-87 39 -34 34 -39 44 -39 85 0 83 45 136 125 145 6 0 27 -4 47 -9z m1029 -91
c33 -58 57 -89 79 -101 l32 -16 -28 -19 c-36 -23 -113 -23 -149 1 -40 26 -66
92 -55 140 9 39 47 89 64 83 5 -2 31 -41 57 -88z m-1427 -1375 c14 -5 16 -55
16 -461 l0 -456 -32 25 c-91 69 -134 209 -125 407 6 137 20 217 68 384 31 105
38 115 73 101z m1734 -101 c62 -214 86 -427 63 -558 -17 -95 -62 -186 -111
-225 l-40 -32 0 455 c0 355 3 456 13 460 38 16 44 7 75 -100z m-1438 42 c57
-9 106 -18 108 -20 7 -7 -39 -100 -61 -124 -31 -33 -78 -51 -137 -51 l-50 0 0
111 c0 100 2 110 18 105 9 -2 64 -12 122 -21z m1200 -90 l0 -105 -55 0 c-96 0
-145 33 -185 123 -12 27 -20 50 -18 51 4 3 205 33 236 35 21 1 22 -1 22 -104z
m-642 54 l240 0 17 -52 c51 -158 163 -245 321 -249 l64 -2 0 -353 0 -353 -670
0 -670 0 2 352 3 352 60 4 c81 5 160 37 212 85 44 40 95 133 108 195 7 32 9
34 40 28 19 -4 141 -7 273 -7z m705 -1252 c26 -57 45 -109 42 -117 -10 -24
-98 -88 -187 -134 -170 -90 -342 -127 -588 -128 -249 0 -428 38 -597 127 -93
49 -193 123 -193 143 0 7 23 57 50 112 l50 100 688 0 687 0 48 -103z m-464
-679 c-29 -95 -55 -176 -59 -181 -4 -4 -18 70 -32 165 -15 95 -25 174 -23 176
8 8 160 27 163 20 2 -4 -20 -85 -49 -180z m-446 165 c35 -5 38 -7 33 -31 -3
-15 -12 -83 -21 -152 -24 -196 -20 -197 -86 5 -32 99 -59 184 -59 188 0 8 28
6 133 -10z"/>
<path d="M1485 2825 c-14 -13 -25 -33 -25 -44 0 -32 55 -86 112 -112 48 -22
67 -24 193 -24 122 1 147 4 197 23 104 42 141 88 113 142 -19 37 -54 47 -92
26 -73 -40 -103 -49 -185 -54 -101 -6 -169 8 -211 44 -36 31 -71 31 -102 -1z"/>
</g>
</svg>
