<!--?xml version="1.0" standalone="no"?--><svg version="1.0" xmlns="http://www.w3.org/2000/svg" width="240.000000pt" height="320.000000pt" viewBox="0 0 240.000000 320.000000" preserveAspectRatio="xMidYMid meet">
<metadata>
  <rdf:rdf xmlns:rdf="http://www.w3.org/1999/02/22-rdf-syntax-ns#" xmlns:rdfs="http://www.w3.org/2000/01/rdf-schema#" xmlns:dc="http://purl.org/dc/elements/1.1/">
    <rdf:description dc:title="thinking clipart" dc:publisher="Hiox" dc:date="2015-05-27" dc:format="image/svg+xml" dc:language="en">
      <dc:creator>
        <rdf:bag>
          <rdf:li>svgimages.com</rdf:li>
        </rdf:bag>
      </dc:creator>
    </rdf:description>
  </rdf:rdf>
</metadata>
<g transform="translate(0.000000,320.000000) scale(0.100000,-0.100000)" fill="#242424" stroke="none">
<path d="M1080 2900 c-8 -6 -27 -7 -42 -4 -14 3 -35 1 -45 -5 -10 -5 -40 -18
-67 -28 -26 -10 -55 -28 -63 -40 -9 -13 -20 -23 -26 -23 -17 0 -107 -103 -114
-130 -3 -14 -15 -37 -26 -52 -18 -24 -18 -30 -7 -58 9 -23 10 -37 2 -54 -8
-18 -6 -29 9 -52 10 -16 19 -38 19 -48 0 -11 9 -30 21 -42 l20 -21 -26 0 c-44
0 -65 -29 -65 -88 0 -64 30 -115 76 -127 27 -7 32 -14 43 -63 15 -65 74 -159
137 -213 24 -22 44 -42 44 -46 0 -3 -11 -6 -26 -6 -54 0 -172 -34 -238 -68
-78 -41 -172 -122 -218 -190 -17 -25 -48 -86 -68 -136 -37 -88 -37 -92 -20
-111 17 -19 17 -23 -1 -95 -14 -52 -20 -112 -20 -197 -1 -118 0 -124 28 -175
38 -67 66 -87 131 -95 l52 -6 -6 -81 c-3 -45 -10 -108 -15 -141 -11 -77 -11
-95 1 -95 5 0 12 17 16 38 4 20 13 44 20 52 8 9 16 58 21 120 l8 105 50 -3
c236 -12 430 -24 480 -30 l60 -7 34 -63 c23 -41 54 -78 93 -110 57 -46 58 -48
53 -89 -4 -26 -2 -44 6 -48 16 -10 29 13 29 53 0 29 3 32 31 32 58 0 95 26
123 89 23 51 26 73 27 167 0 60 6 145 12 188 l12 79 39 11 c21 6 44 19 49 28
8 12 5 66 -12 195 -31 244 -42 264 -226 388 -144 97 -148 117 -50 207 79 72
129 168 142 268 6 45 13 64 22 62 7 -1 24 4 37 13 22 14 24 22 24 104 0 74 -3
91 -19 105 -16 14 -18 23 -11 42 5 13 7 44 4 68 -4 24 -1 59 6 80 12 38 1 93
-27 127 -7 8 -13 22 -13 29 0 7 -16 36 -35 65 -43 65 -94 90 -166 80 -28 -4
-56 -2 -68 4 -11 6 -42 13 -68 16 -92 10 -133 17 -139 26 -7 12 -35 11 -54 -1z
m145 -50 c44 -7 99 -18 122 -26 33 -11 48 -11 68 -2 34 15 93 -12 123 -57 27
-43 28 -55 2 -55 -23 0 -24 -4 -10 -31 6 -10 18 -19 27 -19 12 0 13 3 4 14 -8
10 -9 16 -2 21 6 3 18 -11 27 -32 9 -21 20 -46 25 -55 11 -22 12 -52 2 -62 -5
-4 -9 -39 -9 -78 -1 -54 -6 -76 -23 -99 -20 -27 -22 -43 -24 -187 -2 -150 -3
-160 -30 -214 -34 -70 -107 -153 -157 -178 -20 -10 -42 -26 -49 -34 -21 -25
-28 -19 -36 32 -9 58 -19 72 -57 72 -24 0 -32 -6 -44 -35 -7 -19 -14 -44 -14
-55 0 -24 5 -24 -56 -3 -135 45 -275 204 -290 331 -9 72 -10 73 -40 62 -55
-21 -104 54 -75 116 9 20 18 24 51 24 34 0 40 3 40 21 0 11 -10 35 -23 52 -12
18 -29 48 -36 67 -15 41 -22 148 -9 156 4 3 8 18 8 33 0 15 9 36 20 46 11 10
22 26 25 36 4 11 12 19 20 19 8 0 16 8 19 18 8 24 69 64 126 81 25 8 50 18 57
23 6 5 22 6 36 3 14 -4 34 -2 44 4 10 5 27 8 38 6 11 -3 56 -9 100 -15z m409
-532 c3 -13 8 -44 11 -70 5 -40 3 -48 -14 -57 -29 -16 -31 -14 -31 20 0 16 4
28 9 25 5 -3 12 2 15 11 5 11 -2 25 -18 40 -28 25 -25 53 5 53 11 0 20 -9 23
-22z m-371 -528 c4 -25 10 -90 11 -145 4 -148 5 -155 16 -155 6 0 10 33 10 79
0 88 5 111 26 111 16 0 18 -36 5 -94 -7 -27 -5 -52 5 -85 20 -68 17 -115 -12
-173 l-26 -52 21 -80 c12 -45 46 -135 75 -201 59 -133 77 -190 100 -314 17
-91 21 -100 36 -85 5 5 6 24 1 46 -8 35 -7 37 19 47 16 5 31 7 34 4 8 -9 -5
-95 -19 -123 -20 -40 -59 -70 -97 -76 -45 -8 -83 24 -143 120 -98 158 -149
315 -165 508 -9 114 -11 119 -66 228 -62 123 -70 165 -38 219 14 24 24 31 39
27 13 -4 27 3 42 22 19 23 24 25 41 15 28 -17 33 2 21 74 -8 52 -5 104 8 126
3 5 14 7 26 5 17 -2 23 -13 30 -48z m-268 -50 c-22 -43 -18 -75 14 -112 27
-31 28 -35 14 -53 -11 -15 -13 -36 -10 -80 4 -48 16 -82 61 -168 l56 -108 0
-112 c0 -69 6 -130 15 -159 8 -27 10 -48 5 -48 -19 0 -117 22 -160 36 -132 41
-204 59 -285 68 l-90 11 -3 65 c-4 93 14 216 54 363 20 71 33 131 31 133 -14
14 -66 -108 -93 -216 -10 -41 -19 -76 -20 -78 -2 -3 -146 37 -152 43 -5 4 55
144 82 190 61 103 129 158 271 217 73 30 103 37 158 38 l68 0 -16 -30z m42
-28 c-4 -24 -1 -47 8 -65 17 -32 3 -36 -19 -5 -18 26 -20 61 -6 89 17 30 23
22 17 -19z m111 16 c27 -7 32 -14 32 -38 0 -21 -5 -30 -17 -30 -9 0 -26 -9
-38 -20 l-21 -20 -23 21 c-19 18 -22 28 -16 58 9 47 14 54 34 46 9 -4 31 -11
49 -17z m202 -18 c0 -5 -2 -10 -4 -10 -3 0 -8 5 -11 10 -3 6 -1 10 4 10 6 0
11 -4 11 -10z m241 -222 c71 -69 85 -112 95 -288 l6 -125 -148 8 c-82 5 -150
10 -152 12 -3 2 1 42 8 89 12 80 10 109 -7 92 -4 -3 -9 -33 -11 -66 -2 -33 -7
-60 -11 -60 -9 0 -31 83 -31 114 0 13 9 43 20 67 23 51 25 90 9 168 -7 32 -9
76 -5 103 l7 46 82 -51 c44 -29 107 -77 138 -109z m-1069 -214 l58 -17 -8 -41
c-4 -22 -7 -70 -7 -106 0 -100 13 -113 132 -140 54 -12 139 -32 188 -45 50
-13 133 -33 185 -45 l95 -21 21 -65 c11 -36 18 -66 15 -68 -10 -6 -614 32
-672 42 -54 9 -79 42 -105 138 -16 60 -16 79 -6 178 13 117 30 206 40 206 3 0
32 -7 64 -16z m1086 -229 c2 -1 0 -36 -4 -77 l-6 -75 -25 25 c-24 24 -40 25
-102 10 -9 -2 -25 18 -42 52 -35 69 -35 68 -1 72 29 3 175 -2 180 -7z m76 -1
c24 -9 19 -21 -9 -26 -19 -4 -25 -1 -25 13 0 20 8 23 34 13z m-134 -143 c0
-11 -69 -36 -77 -27 -3 3 -3 12 0 21 7 16 77 22 77 6z m20 -41 c0 -8 -60 -30
-82 -30 -19 0 -5 19 20 28 35 14 62 14 62 2z m6 -42 c9 -15 -23 -38 -54 -38
-32 0 -26 32 8 41 36 10 38 10 46 -3z m10 -60 c9 -14 -23 -38 -53 -38 -16 0
-23 6 -23 19 0 27 62 42 76 19z" id="node1" class="node"></path>
<path d="M1094 2825 c-12 -9 -14 -14 -6 -15 7 0 20 -7 29 -15 17 -18 34 -16
41 5 3 7 0 10 -6 7 -5 -4 -12 2 -15 13 -6 24 -16 25 -43 5z" id="node2" class="node"></path>
<path d="M1030 2819 c0 -5 5 -7 10 -4 6 3 10 8 10 11 0 2 -4 4 -10 4 -5 0 -10
-5 -10 -11z" id="node3" class="node"></path>
<path d="M1247 2823 c-13 -12 -7 -22 8 -17 11 5 13 2 9 -10 -7 -18 12 -21 36
-6 13 8 12 11 -5 24 -22 17 -38 20 -48 9z" id="node4" class="node"></path>
<path d="M928 2789 c-29 -16 -21 -28 15 -22 38 6 41 8 32 22 -8 14 -25 14 -47
0z" id="node5" class="node"></path>
<path d="M1395 2790 c-3 -5 1 -10 10 -10 11 0 15 -5 12 -14 -4 -9 3 -16 18
-19 34 -6 36 0 10 29 -24 26 -40 30 -50 14z" id="node6" class="node"></path>
<path d="M996 2754 c-5 -12 -2 -15 10 -10 8 3 20 6 25 6 5 0 9 5 9 10 0 16
-37 11 -44 -6z" id="node7" class="node"></path>
<path d="M806 2687 c-16 -13 -26 -29 -22 -35 4 -7 15 -2 32 13 35 33 26 51
-10 22z" id="node8" class="node"></path>
<path d="M880 2675 c-7 -8 -10 -19 -6 -22 4 -4 11 -2 15 5 4 7 15 10 26 6 13
-5 16 -3 13 7 -7 20 -33 22 -48 4z" id="node9" class="node"></path>
<path d="M1563 2570 c0 -17 5 -29 11 -27 6 2 11 14 11 27 0 13 -5 25 -11 27
-6 2 -11 -10 -11 -27z" id="node10" class="node"></path>
<path d="M757 2563 c-10 -10 -8 -53 2 -53 10 0 21 24 21 46 0 15 -12 19 -23 7z" id="node11" class="node"></path>
<path d="M1380 2441 c0 -17 6 -21 31 -21 17 0 39 -5 49 -10 10 -6 21 -6 24 -1
9 14 -29 42 -68 48 -32 5 -36 3 -36 -16z" id="node12" class="node"></path>
<path d="M782 2423 c5 -25 28 -28 28 -4 0 12 -6 21 -16 21 -9 0 -14 -7 -12
-17z" id="node13" class="node"></path>
<path d="M1002 2404 c-23 -19 -42 -43 -42 -52 0 -12 6 -10 28 10 15 14 37 31
50 37 21 11 31 41 14 41 -5 0 -27 -16 -50 -36z" id="node14" class="node"></path>
<path d="M1380 2305 c-10 -12 -9 -16 4 -21 22 -8 46 2 46 21 0 19 -34 20 -50
0z" id="node15" class="node"></path>
<path d="M1255 2301 c-8 -13 12 -96 36 -150 10 -24 19 -45 19 -46 0 -1 -18 -7
-40 -14 -47 -14 -58 -46 -12 -35 89 22 95 36 54 120 -18 36 -32 80 -32 99 0
33 -12 46 -25 26z" id="node16" class="node"></path>
<path d="M1060 2286 c0 -8 5 -18 10 -21 13 -8 42 14 34 26 -9 15 -44 10 -44
-5z" id="node17" class="node"></path>
<path d="M730 2233 c0 -5 13 -16 30 -25 32 -18 50 -7 30 17 -13 15 -60 21 -60
8z" id="node18" class="node"></path>
<path d="M1335 1970 c-3 -5 -23 -9 -44 -8 -31 1 -99 -17 -191 -51 -8 -3 1 -7
21 -9 20 -2 55 6 83 18 26 11 65 20 86 20 48 0 70 8 70 26 0 16 -16 19 -25 4z" id="node19" class="node"></path>
<path d="M1261 1910 c-57 -6 -68 -30 -14 -30 21 0 44 4 52 9 25 16 7 26 -38
21z" id="node20" class="node"></path>
<path d="M1920 2473 c-40 -13 -63 -30 -77 -56 -21 -42 -9 -75 34 -94 34 -14
38 -14 50 3 7 10 13 21 13 26 0 4 18 8 39 8 40 0 71 -25 71 -57 0 -28 -39 -53
-84 -53 -25 0 -56 -4 -70 -10 -29 -11 -62 -70 -53 -93 7 -19 86 -28 95 -11 4
6 34 17 67 24 134 27 185 68 185 146 0 85 -44 127 -165 159 -61 15 -79 17
-105 8z m155 -53 c62 -27 90 -63 89 -115 -2 -73 -38 -99 -161 -116 -45 -6 -83
-16 -89 -25 -16 -21 -44 -17 -44 5 0 28 38 51 85 51 82 0 137 51 121 114 -14
56 -116 86 -156 46 -11 -11 -26 -20 -34 -20 -39 0 -30 63 11 79 36 13 127 4
178 -19z" id="node21" class="node"></path>
<path d="M375 2095 c-59 -21 -85 -58 -85 -123 0 -63 13 -72 74 -51 39 13 41
16 41 54 0 34 3 40 23 43 27 4 52 -14 52 -37 0 -9 -18 -34 -40 -56 -44 -43
-69 -100 -51 -118 15 -15 64 10 120 59 71 64 90 137 49 189 -41 52 -108 67
-183 40z m120 -29 c44 -19 68 -55 59 -92 -7 -28 -105 -134 -124 -134 -21 0 -8
20 41 69 44 44 50 54 45 78 -8 35 -50 73 -80 73 -49 0 -98 -65 -64 -86 7 -5 5
-11 -7 -21 -25 -18 -32 -17 -45 8 -18 33 5 74 53 98 49 25 76 26 122 7z" id="node22" class="node"></path>
<path d="M1852 2078 c-28 -28 -2 -88 33 -74 25 9 40 53 25 71 -15 18 -41 20
-58 3z m38 -38 c0 -5 -4 -10 -9 -10 -6 0 -13 5 -16 10 -3 6 1 10 9 10 9 0 16
-4 16 -10z" id="node23" class="node"></path>
<path d="M432 1778 c-17 -17 -15 -32 8 -53 18 -17 21 -17 45 -1 26 17 29 24
19 50 -7 19 -55 21 -72 4z m48 -29 c0 -5 -7 -9 -15 -9 -15 0 -20 12 -9 23 8 8
24 -1 24 -14z" id="node24" class="node"></path>
</g>
<g transform="translate(0.000000,320.000000) scale(0.100000,-0.100000)" fill="#FFFFFF" stroke="none">

<path d="M1087 2859 c-10 -6 -30 -8 -44 -4 -14 3 -30 2 -36 -3 -7 -5 -32 -15
-57 -23 -57 -17 -118 -57 -126 -81 -3 -10 -11 -18 -19 -18 -8 0 -16 -8 -20
-19 -3 -10 -14 -26 -25 -36 -11 -10 -20 -31 -20 -46 0 -15 -4 -30 -8 -33 -13
-8 -6 -115 9 -156 7 -19 24 -49 36 -67 13 -17 23 -41 23 -52 0 -18 -6 -21 -40
-21 -33 0 -42 -4 -51 -24 -29 -62 20 -137 75 -116 30 11 31 10 40 -62 15 -127
155 -286 290 -331 61 -21 56 -21 56 3 0 11 7 36 14 55 12 29 20 35 44 35 38 0
48 -14 57 -72 8 -51 15 -57 36 -32 7 8 29 24 49 34 50 25 123 108 157 178 27
54 28 64 30 214 2 144 4 160 24 187 17 23 22 45 23 99 0 39 4 74 9 78 10 10 9
40 -2 62 -5 9 -16 34 -25 55 -9 21 -21 35 -27 32 -7 -5 -6 -11 2 -21 9 -11 8
-14 -4 -14 -9 0 -21 9 -27 19 -14 27 -13 31 10 31 26 0 25 12 -2 55 -30 45
-89 72 -123 57 -20 -9 -35 -9 -68 2 -23 8 -78 19 -122 26 -44 6 -89 12 -100
15 -11 2 -28 -1 -38 -6z m50 -39 c3 -11 10 -17 15 -13 6 3 9 0 6 -7 -7 -21
-24 -23 -41 -5 -9 8 -22 15 -29 15 -8 1 -6 6 6 15 27 20 37 19 43 -5z m-87 6
c0 -3 -4 -8 -10 -11 -5 -3 -10 -1 -10 4 0 6 5 11 10 11 6 0 10 -2 10 -4z m245
-12 c17 -13 18 -16 5 -24 -24 -15 -43 -12 -36 6 4 12 2 15 -9 10 -15 -5 -21 5
-8 17 10 11 26 8 48 -9z m-320 -25 c9 -14 6 -16 -32 -22 -36 -6 -44 6 -15 22
22 14 39 14 47 0z m470 -13 c26 -29 24 -35 -10 -29 -15 3 -22 10 -18 19 3 9
-1 14 -12 14 -9 0 -13 5 -10 10 10 16 26 12 50 -14z m-405 -16 c0 -5 -4 -10
-9 -10 -5 0 -17 -3 -25 -6 -12 -5 -15 -2 -10 10 7 17 44 22 44 6z m-224 -95
c-17 -15 -28 -20 -32 -13 -4 6 6 22 22 35 36 29 45 11 10 -22z m112 6 c3 -10
0 -12 -13 -7 -11 4 -22 1 -26 -6 -4 -7 -11 -9 -15 -5 -10 10 17 38 34 35 9 -2
17 -9 20 -17z m657 -101 c0 -13 -5 -25 -11 -27 -6 -2 -11 10 -11 27 0 17 5 29
11 27 6 -2 11 -14 11 -27z m-805 -14 c0 -22 -11 -46 -21 -46 -10 0 -12 43 -2
53 11 12 23 8 23 -7z m691 -122 c23 -20 15 -38 -11 -24 -10 5 -32 10 -49 10
-25 0 -31 4 -31 21 0 19 4 21 36 16 20 -3 45 -14 55 -23z m-661 -15 c0 -24
-23 -21 -28 4 -2 10 3 17 12 17 10 0 16 -9 16 -21z m250 6 c0 -8 -10 -20 -22
-26 -13 -6 -35 -23 -50 -37 -22 -20 -28 -22 -28 -10 0 16 75 88 92 88 4 0 8
-7 8 -15z m370 -120 c0 -19 -24 -29 -46 -21 -13 5 -14 9 -4 21 16 20 50 19 50
0z m-150 -30 c0 -19 14 -63 32 -99 41 -84 35 -98 -54 -120 -46 -11 -35 21 12
35 22 7 40 13 40 14 0 1 -9 22 -19 46 -24 54 -44 137 -36 150 13 20 25 7 25
-26z m-176 16 c8 -12 -21 -34 -34 -26 -17 11 -11 35 9 35 11 0 22 -4 25 -9z
m-314 -66 c20 -24 2 -35 -30 -17 -17 9 -30 20 -30 25 0 13 47 7 60 -8z m570
-259 c0 -18 -22 -26 -70 -26 -21 0 -60 -9 -86 -20 -28 -12 -63 -20 -83 -18
-20 2 -29 6 -21 9 92 34 160 52 191 51 21 -1 41 3 44 8 9 15 25 12 25 -4z
m-61 -77 c-8 -5 -31 -9 -52 -9 -54 0 -43 24 14 30 45 5 63 -5 38 -21z" id="node26" class="node"></path>
<path d="M1586 2325 c-3 -9 5 -25 20 -38 16 -15 23 -29 18 -40 -3 -9 -10 -14
-15 -11 -5 3 -9 -9 -9 -25 0 -34 2 -36 31 -20 17 9 19 17 14 57 -11 82 -14 92
-34 92 -10 0 -21 -7 -25 -15z" id="node27" class="node"></path>
<path d="M1207 1833 c-13 -22 -16 -74 -8 -126 12 -72 7 -91 -21 -74 -17 10
-22 8 -41 -15 -15 -19 -29 -26 -42 -22 -15 4 -25 -3 -39 -27 -32 -54 -24 -96
38 -219 55 -109 57 -114 66 -228 16 -193 67 -350 165 -508 60 -96 98 -128 143
-120 38 6 77 36 97 76 14 28 27 114 19 123 -3 3 -18 1 -34 -4 -26 -10 -27 -12
-19 -47 5 -22 4 -41 -1 -46 -15 -15 -19 -6 -36 85 -23 124 -41 181 -100 314
-29 66 -63 156 -75 201 l-21 80 26 52 c29 58 32 105 12 173 -10 33 -12 58 -5
85 13 58 11 94 -5 94 -21 0 -26 -23 -26 -111 0 -46 -4 -79 -10 -79 -11 0 -12
7 -16 155 -4 141 -14 189 -41 193 -12 2 -23 0 -26 -5z" id="node28" class="node"></path>
<path d="M785 1732 c-142 -59 -210 -114 -271 -217 -27 -46 -87 -186 -82 -190
6 -6 150 -46 152 -43 1 2 10 37 20 78 27 108 79 230 93 216 2 -2 -11 -62 -31
-133 -40 -147 -58 -270 -54 -363 l3 -65 90 -11 c81 -9 153 -27 285 -68 43 -14
141 -36 160 -36 5 0 3 21 -5 48 -9 29 -15 90 -15 159 l0 112 -56 108 c-45 86
-57 120 -61 168 -3 44 -1 65 10 80 14 18 13 22 -14 53 -32 37 -36 69 -14 112
l16 30 -68 0 c-55 -1 -85 -8 -158 -38z" id="node29" class="node"></path>
<path d="M1020 1731 c-14 -28 -12 -63 6 -89 22 -31 36 -27 19 5 -9 18 -12 41
-8 65 6 41 0 49 -17 19z" id="node30" class="node"></path>
<path d="M1077 1743 c-3 -4 -8 -24 -12 -44 -6 -30 -3 -40 16 -58 l23 -21 21
20 c12 11 29 20 38 20 12 0 17 9 17 30 0 24 -5 31 -32 38 -18 6 -40 13 -49 17
-10 3 -19 3 -22 -2z" id="node31" class="node"></path>
<path d="M1335 1710 c3 -5 8 -10 11 -10 2 0 4 5 4 10 0 6 -5 10 -11 10 -5 0
-7 -4 -4 -10z" id="node32" class="node"></path>
<path d="M1364 1602 c-4 -27 -2 -71 5 -103 16 -78 14 -117 -9 -168 -11 -24
-20 -54 -20 -67 0 -31 22 -114 31 -114 4 0 9 27 11 60 2 33 7 63 11 66 17 17
19 -12 7 -92 -7 -47 -11 -87 -8 -89 2 -2 70 -7 152 -12 l148 -8 -6 125 c-10
176 -24 219 -95 288 -31 32 -94 80 -138 109 l-82 51 -7 -46z" id="node33" class="node"></path>
<path d="M441 1243 c-6 -27 -16 -98 -23 -159 -10 -99 -10 -118 6 -178 26 -96
51 -129 105 -138 58 -10 662 -48 672 -42 3 2 -4 32 -15 68 l-21 65 -95 21
c-52 12 -135 32 -185 45 -49 13 -134 33 -188 45 -119 27 -132 40 -132 140 0
36 3 84 7 106 l8 41 -58 17 c-32 9 -61 16 -64 16 -4 0 -11 -21 -17 -47z" id="node34" class="node"></path>
<path d="M1428 1052 c-34 -4 -34 -3 1 -72 17 -34 33 -54 42 -52 62 15 78 14
102 -10 l25 -25 6 75 c4 41 6 76 4 77 -5 5 -151 10 -180 7z" id="node35" class="node"></path>
<path d="M1650 1031 c0 -14 6 -17 25 -13 28 5 33 17 9 26 -26 10 -34 7 -34
-13z" id="node36" class="node"></path>
<path d="M1473 895 c-3 -9 -3 -18 0 -21 8 -9 77 16 77 27 0 16 -70 10 -77 -6z" id="node37" class="node"></path>
<path d="M1508 858 c-25 -9 -39 -28 -20 -28 22 0 82 22 82 30 0 12 -27 12 -62
-2z" id="node38" class="node"></path>
<path d="M1530 821 c-34 -9 -40 -41 -8 -41 31 0 63 23 54 38 -8 13 -10 13 -46
3z" id="node39" class="node"></path>
<path d="M1528 763 c-28 -7 -23 -43 5 -43 30 0 62 24 53 38 -7 12 -26 14 -58
5z" id="node40" class="node"></path>
<path d="M1897 2439 c-41 -16 -50 -79 -11 -79 8 0 23 9 34 20 40 40 142 10
156 -46 16 -63 -39 -114 -121 -114 -47 0 -85 -23 -85 -51 0 -22 28 -26 44 -5
6 9 44 19 89 25 123 17 159 43 161 116 1 52 -27 88 -89 115 -51 23 -142 32
-178 19z" id="node41" class="node"></path>
<path d="M373 2059 c-48 -24 -71 -65 -53 -98 13 -25 20 -26 45 -8 12 10 14 16
7 21 -34 21 15 86 64 86 30 0 72 -38 80 -73 5 -24 -1 -34 -45 -78 -49 -49 -62
-69 -41 -69 19 0 117 106 124 134 9 37 -15 73 -59 92 -46 19 -73 18 -122 -7z" id="node42" class="node"></path>
<path d="M1865 2040 c3 -5 10 -10 16 -10 5 0 9 5 9 10 0 6 -7 10 -16 10 -8 0
-12 -4 -9 -10z" id="node43" class="node"></path>
<path d="M456 1763 c-11 -11 -6 -23 9 -23 8 0 15 4 15 9 0 13 -16 22 -24 14z" id="node44" class="node"></path>
</g>
</svg>